<svg width="354" height="543" viewBox="0 0 354 543" fill="none" xmlns="http://www.w3.org/2000/svg">
<mask id="path-1-outside-1_10_8" maskUnits="userSpaceOnUse" x="0" y="-1" width="354" height="544" fill="black">
<rect fill="white" y="-1" width="354" height="544"/>
<path fill-rule="evenodd" clip-rule="evenodd" d="M214.355 16.3535L211.533 18.7816L211.03 199.332L210.527 379.883L204.492 375.296C196.809 369.456 184.614 363.592 174.316 360.784C163.132 357.735 132.441 357.468 119.497 360.306C67.1796 371.78 23.938 408.902 15.2122 449.833C13.0064 460.184 13.8875 475.036 17.233 483.858C29.0015 514.895 63.8774 532.171 106.631 528.142C155.417 523.544 200.65 494.737 219.535 456.239C228.232 438.512 227.528 450.453 228.112 310.684L228.632 186.494L230.642 190.988C234.043 198.593 244.585 215.353 252.531 225.787C256.691 231.248 267.877 243.836 277.389 253.76C286.901 263.684 298.281 276.584 302.675 282.427C312.149 295.023 320.108 310.448 322.127 320.128C323.862 328.443 326.14 331.173 331.337 331.173C334.099 331.173 335.602 330.485 337.395 328.4L339.779 325.628L339.743 276.649C339.716 238.591 339.4 226.437 338.327 222.138C332.262 197.835 318.501 176.368 289.982 146.721C272.401 128.445 265.815 120.632 258.06 108.852C241.424 83.5827 231.272 55.1824 228.622 26.4995C227.936 19.0693 226.992 17.0002 223.418 15.0962C220.077 13.3178 217.463 13.6799 214.355 16.3535Z"/>
</mask>
<path fill-rule="evenodd" clip-rule="evenodd" d="M214.355 16.3535L211.533 18.7816L211.03 199.332L210.527 379.883L204.492 375.296C196.809 369.456 184.614 363.592 174.316 360.784C163.132 357.735 132.441 357.468 119.497 360.306C67.1796 371.78 23.938 408.902 15.2122 449.833C13.0064 460.184 13.8875 475.036 17.233 483.858C29.0015 514.895 63.8774 532.171 106.631 528.142C155.417 523.544 200.65 494.737 219.535 456.239C228.232 438.512 227.528 450.453 228.112 310.684L228.632 186.494L230.642 190.988C234.043 198.593 244.585 215.353 252.531 225.787C256.691 231.248 267.877 243.836 277.389 253.76C286.901 263.684 298.281 276.584 302.675 282.427C312.149 295.023 320.108 310.448 322.127 320.128C323.862 328.443 326.14 331.173 331.337 331.173C334.099 331.173 335.602 330.485 337.395 328.4L339.779 325.628L339.743 276.649C339.716 238.591 339.4 226.437 338.327 222.138C332.262 197.835 318.501 176.368 289.982 146.721C272.401 128.445 265.815 120.632 258.06 108.852C241.424 83.5827 231.272 55.1824 228.622 26.4995C227.936 19.0693 226.992 17.0002 223.418 15.0962C220.077 13.3178 217.463 13.6799 214.355 16.3535Z" fill="black"/>
<path fill-rule="evenodd" clip-rule="evenodd" d="M214.355 16.3535L211.533 18.7816L211.03 199.332L210.527 379.883L204.492 375.296C196.809 369.456 184.614 363.592 174.316 360.784C163.132 357.735 132.441 357.468 119.497 360.306C67.1796 371.78 23.938 408.902 15.2122 449.833C13.0064 460.184 13.8875 475.036 17.233 483.858C29.0015 514.895 63.8774 532.171 106.631 528.142C155.417 523.544 200.65 494.737 219.535 456.239C228.232 438.512 227.528 450.453 228.112 310.684L228.632 186.494L230.642 190.988C234.043 198.593 244.585 215.353 252.531 225.787C256.691 231.248 267.877 243.836 277.389 253.76C286.901 263.684 298.281 276.584 302.675 282.427C312.149 295.023 320.108 310.448 322.127 320.128C323.862 328.443 326.14 331.173 331.337 331.173C334.099 331.173 335.602 330.485 337.395 328.4L339.779 325.628L339.743 276.649C339.716 238.591 339.4 226.437 338.327 222.138C332.262 197.835 318.501 176.368 289.982 146.721C272.401 128.445 265.815 120.632 258.06 108.852C241.424 83.5827 231.272 55.1824 228.622 26.4995C227.936 19.0693 226.992 17.0002 223.418 15.0962C220.077 13.3178 217.463 13.6799 214.355 16.3535Z" stroke="white" stroke-width="28" mask="url(#path-1-outside-1_10_8)"/>
</svg>
