<svg width="4397" height="1873" viewBox="0 0 4397 1873" fill="none" xmlns="http://www.w3.org/2000/svg">
<path fill-rule="evenodd" clip-rule="evenodd" d="M4228.38 548.267C4227.11 548.392 4223.67 548.953 4220.73 549.513C4184.88 556.351 4171.01 559.086 4170.73 559.37C4170.54 559.558 4171.13 562.381 4172.04 565.645C4175.24 577.139 4180.65 606.938 4182.61 623.856C4184.76 642.452 4185.13 686.865 4183.19 693.147L4181.98 697.046L4154.17 700.953C4138.87 703.102 4118.19 706.027 4108.21 707.453C4098.22 708.879 4089.73 709.749 4089.34 709.387C4088.94 709.025 4088.56 681.72 4088.49 648.711C4088.43 615.701 4088.23 585.612 4088.05 581.847L4087.73 575L4057.23 580.851C4040.45 584.068 4026.47 586.959 4026.15 587.274C4025.84 587.588 4027.16 592.945 4029.1 599.177C4040.02 634.371 4046.77 671.644 4047.44 700.43C4047.62 708.362 4047.53 715.096 4047.23 715.394C4046.66 715.966 4034.76 717.733 3982.84 724.961C3961.48 727.933 3950.78 728.949 3950.65 728.017C3950.27 725.382 3943.23 665.965 3939.73 635.917C3937.81 619.395 3936.01 605.486 3935.74 605.009C3935.08 603.854 3880.74 614.296 3880.84 615.559C3880.88 616.099 3882.51 620.446 3884.45 625.219C3894.5 649.961 3902.37 676.212 3907.06 700.711C3910.16 716.887 3912.02 733.092 3910.92 734.271C3910.46 734.759 3893.19 737.535 3872.54 740.44C3851.89 743.345 3834.42 745.868 3833.72 746.048C3833.02 746.226 3832.39 748.557 3832.31 751.226C3832.07 759.362 3829.39 765.458 3823.36 771.574C3814.45 780.602 3811.95 781.028 3772.01 780.288C3753.09 779.937 3728.83 779.508 3718.1 779.334C3707.36 779.162 3689.55 778.842 3678.5 778.623C3667.46 778.405 3649.95 778.105 3639.6 777.957C3629.25 777.809 3604.23 777.371 3584.01 776.984C3539.47 776.132 3390.7 773.405 3364.54 772.962C3354.19 772.786 3337.61 772.498 3327.7 772.322C3317.79 772.145 3291.56 771.686 3269.41 771.301C3247.25 770.916 3221.3 770.457 3211.74 770.279C3185.15 769.786 3033.75 767.023 2992.26 766.274C2972.01 765.908 2946.98 765.486 2936.63 765.338C2926.28 765.189 2915.91 765.007 2913.59 764.935C2911.27 764.862 2893.79 764.526 2874.74 764.187C2844.4 763.647 2809.27 763.015 2638.72 759.938C2618.87 759.58 2593.89 759.135 2583.2 758.948C2572.52 758.762 2554.7 758.444 2543.6 758.241C2532.51 758.039 2514.98 757.722 2504.64 757.538C2464.54 756.824 2402.3 755.629 2397.03 755.472L2391.5 755.308L2390 747.66C2382.86 711.439 2367 657.482 2351.78 617.627C2309.52 506.994 2244.94 414.977 2164.68 351.053C2097.41 297.474 2017.65 264.065 1934.86 254.78C1886.99 249.412 1837.12 252.247 1791.37 262.937C1751.93 272.149 1715.87 285.321 1652.23 313.757C1575.68 347.961 1542.07 358.112 1501.45 359.296C1492.06 359.57 1468.43 357.939 1452.42 355.914C1405.47 349.974 1355.38 327.097 1302.92 287.63C1292.89 280.092 1272.97 264.062 1256.28 250.118C1252.24 246.74 1205.22 205.23 1183.05 185.468C1156.73 162.01 1118.24 130.77 1092.49 111.971C1025.32 62.9235 957.261 30.5848 887.161 14.4076C849.707 5.76389 792.916 0.447235 742.378 0.853819C705.766 1.14798 678.33 3.48429 644.123 9.22175C523.106 29.5185 414.15 85.0978 308.388 180.482C222.302 258.122 139.957 373.616 89.4194 487.601C73.67 523.123 67.1788 539.696 55.5893 573.979C22.5299 671.769 4.70656 770.993 1.00062 877.894C0.176129 901.684 0.176215 971.785 1.0007 995.575C6.59038 1156.8 45.7456 1307.75 116.817 1442.06C167.036 1536.97 236.989 1628.59 308.388 1692.99C424.703 1797.89 545.588 1855.04 681.447 1869.35C739.766 1875.49 803.392 1873.32 867.293 1863.01C895.117 1858.52 934.374 1846.95 964.977 1834.24C1016.79 1812.7 1064.12 1784.23 1118.71 1741.75C1132.06 1731.35 1169.67 1699.96 1183.06 1688.02C1206.35 1667.26 1252.28 1626.7 1256.28 1623.35C1272.97 1609.41 1292.89 1593.38 1302.92 1585.84C1355.38 1546.37 1405.47 1523.5 1452.42 1517.55C1519.79 1509.03 1551.83 1515.43 1642.9 1555.61C1648.57 1558.11 1657.39 1562.01 1662.51 1564.28C1759.66 1607.31 1815.12 1621.31 1887.85 1621.17C1967.76 1621.02 2044.19 1599.45 2114.31 1557.28C2151.75 1534.76 2181.73 1510.72 2214.43 1477C2265.62 1424.2 2307.36 1360.33 2339.92 1285C2360.25 1237.96 2380.72 1172.9 2390 1125.81L2391.5 1118.16L2397.74 1118C2405.9 1117.79 2480.35 1116.36 2505.35 1115.93C2516.08 1115.75 2534.21 1115.42 2545.64 1115.21C2557.08 1115 2573.96 1114.71 2583.15 1114.57C2592.34 1114.42 2626.72 1113.8 2659.55 1113.19C2732.87 1111.83 2833.14 1110 2860.25 1109.53C2871.34 1109.34 2888.55 1109.04 2898.5 1108.86C2908.45 1108.67 2926.29 1108.37 2938.16 1108.17C2950.02 1107.98 2975.64 1107.52 2995.09 1107.16C3014.55 1106.8 3067.33 1105.83 3112.39 1104.99C3157.45 1104.16 3201.84 1103.37 3211.03 1103.23C3220.23 1103.09 3246.18 1102.63 3268.71 1102.22C3311.79 1101.42 3333.51 1101.03 3364.54 1100.51C3385.71 1100.15 3527.48 1097.57 3584.72 1096.5C3638.66 1095.49 3695.57 1094.48 3718.11 1094.12C3728.83 1093.96 3753.09 1093.53 3772.01 1093.18C3811.98 1092.44 3814.47 1092.86 3823.38 1101.92C3827.97 1106.59 3828.92 1108.16 3830.73 1114.1C3831.87 1117.85 3832.64 1122.29 3832.44 1123.96C3832.22 1125.87 3832.62 1127.15 3833.53 1127.38C3834.96 1127.74 3855.43 1130.69 3891.75 1135.78C3901.86 1137.19 3910.5 1138.74 3910.95 1139.21C3912.14 1140.46 3909.68 1159.95 3906.2 1176.85C3901.28 1200.78 3893.94 1224.88 3884.6 1247.88C3882.57 1252.85 3880.88 1257.37 3880.84 1257.92C3880.74 1259.19 3935.06 1269.63 3935.73 1268.47C3936.01 1267.99 3937.81 1254.07 3939.73 1237.55C3943.21 1207.62 3950.26 1148.13 3950.65 1145.43C3950.79 1144.47 3965.97 1146.14 3997.98 1150.65C4023.9 1154.3 4045.71 1157.56 4046.44 1157.89C4048.32 1158.72 4047.54 1184.25 4045.1 1202.17C4041.69 1227.2 4036.63 1250.04 4029.1 1274.29C4027.16 1280.52 4025.84 1285.88 4026.15 1286.19C4026.47 1286.51 4040.45 1289.4 4057.23 1292.62L4087.73 1298.47L4088.05 1291.62C4088.23 1287.86 4088.43 1257.77 4088.49 1224.76C4088.56 1191.75 4088.94 1164.45 4089.34 1164.08C4089.74 1163.72 4098.23 1164.6 4108.22 1166.03C4118.21 1167.46 4138.78 1170.37 4153.93 1172.49C4169.08 1174.61 4181.79 1176.67 4182.18 1177.06C4183.67 1178.55 4184.94 1197.15 4184.72 1214.4C4184.38 1242.31 4178.76 1283.7 4172.04 1307.82C4171.13 1311.09 4170.54 1313.91 4170.72 1314.09C4171.02 1314.39 4210.47 1322.09 4224.36 1324.56C4227.34 1325.09 4229.92 1325.23 4230.11 1324.87C4230.29 1324.51 4229.44 1313.53 4228.2 1300.46C4220.32 1216.96 4217.1 1181.92 4217.32 1181.7C4217.45 1181.57 4237.99 1184.3 4262.95 1187.77C4287.91 1191.25 4308.5 1193.72 4308.71 1193.27C4309.19 1192.25 4311.17 1168.27 4313.12 1139.96L4314.61 1118.28L4324.1 1118C4335.43 1117.67 4343.06 1115.34 4353.71 1108.94C4360.39 1104.94 4362.84 1102.86 4369.44 1095.68C4385.98 1077.63 4394.59 1055.84 4396.35 1027.52C4397.43 1010.02 4396.77 844.091 4395.58 835.858C4392.01 811.174 4382.35 790.425 4367.46 775.466C4354.73 762.684 4340.16 755.932 4324.29 755.47L4314.61 755.187L4313.12 733.508C4311.17 705.204 4309.19 681.219 4308.71 680.196C4308.5 679.748 4287.91 682.223 4262.95 685.696C4237.99 689.17 4217.45 691.897 4217.31 691.755C4217.17 691.614 4218.26 678.869 4219.75 663.434C4221.23 648 4224.1 617.314 4226.13 595.243C4228.16 573.172 4230.02 553.523 4230.26 551.577C4230.66 548.23 4230.56 548.051 4228.38 548.267ZM4300.95 854.381C4304.66 865.944 4298.55 878.646 4287.33 882.697C4284.45 883.737 4219.83 884.175 4076.64 884.125L3870.1 884.053L3870.09 862.142C3870.08 850.091 3870.39 839.907 3870.79 839.51C3871.19 839.113 3964.55 838.828 4078.26 838.874C4303.42 838.966 4289.78 838.478 4296.62 846.683C4298.28 848.668 4300.22 852.132 4300.95 854.381ZM4300.52 1003.44C4304.93 1014.16 4300.31 1026.66 4290 1031.95C4285.22 1034.4 4275.94 1034.52 4078.26 1034.6C3964.55 1034.64 3871.19 1034.36 3870.79 1033.96C3870.39 1033.56 3870.08 1023.38 3870.09 1011.33L3870.1 989.415L4076.64 989.344C4219.83 989.294 4284.45 989.731 4287.33 990.772C4292.44 992.616 4298.45 998.387 4300.52 1003.44ZM3797.83 839.022C3797.89 844.334 3797.6 849.038 3797.17 849.472C3796.75 849.906 3778.69 849.991 3757.05 849.659C3714.59 849.009 3682.18 848.568 3645.78 848.147C3633.09 847.999 3621.25 847.7 3619.46 847.483L3616.2 847.084L3616.23 836.153L3616.27 825.22L3623.61 825.578C3627.64 825.774 3646.51 826.181 3665.54 826.482C3737.72 827.623 3797.14 828.789 3797.42 829.071C3797.58 829.231 3797.77 833.71 3797.83 839.022ZM3797.75 887.8L3797.83 899.617L3731.95 899.44C3695.72 899.342 3654.87 899.178 3641.17 899.076L3616.26 898.889L3616.23 885.506L3616.21 872.123L3619.48 872C3621.28 871.931 3640.28 872.167 3661.71 872.522C3705.14 873.242 3744.85 873.781 3775.53 874.07C3786.76 874.175 3796.33 874.649 3796.81 875.123C3797.28 875.596 3797.7 881.301 3797.75 887.8ZM3790.32 949.245C3786.19 949.394 3745.33 949.683 3699.51 949.887L3616.21 950.256L3616.23 936.533L3616.26 922.81L3642.02 923.191C3656.18 923.401 3697.03 923.644 3732.78 923.73L3797.79 923.887L3797.81 936.43L3797.83 948.974L3790.32 949.245ZM3796.85 998.304C3796.4 998.754 3786.53 999.233 3774.92 999.368C3737.39 999.806 3702.94 1000.29 3661.72 1000.96C3639.52 1001.32 3620.2 1001.55 3618.78 1001.47C3616.3 1001.33 3616.21 1000.84 3616.24 987.954L3616.26 974.579L3641.17 974.393C3654.87 974.29 3695.72 974.127 3731.95 974.029L3797.83 973.852L3797.75 985.668C3797.7 992.167 3797.3 997.853 3796.85 998.304ZM3797.83 1034.65L3797.71 1044.52L3790.55 1044.68C3775.84 1045.01 3701.59 1046.38 3666.88 1046.95C3647.11 1047.28 3627.61 1047.68 3623.56 1047.85L3616.19 1048.15L3616.23 1036.93L3616.27 1025.7L3639 1025.47C3651.5 1025.34 3663.04 1025.2 3664.64 1025.15C3669.26 1025.01 3753.03 1023.76 3775.79 1023.49C3787.14 1023.35 3796.77 1023.59 3797.19 1024.01C3797.6 1024.44 3797.89 1029.23 3797.83 1034.65ZM3546.77 846.41C3519.28 846.15 3492.29 845.774 3432.73 844.82C3406.32 844.398 3375.4 843.94 3364.02 843.804L3343.32 843.555L3343.29 832.347C3343.27 826.182 3343.52 821.04 3343.84 820.921C3344.16 820.801 3363.8 821.05 3387.49 821.475C3411.17 821.899 3447.77 822.53 3468.82 822.875C3489.86 823.22 3520.81 823.767 3537.6 824.09L3568.12 824.676L3568.15 835.645L3568.19 846.612L3546.77 846.41ZM3567.43 898.213C3567.02 898.625 3556.75 898.875 3544.62 898.767C3517.75 898.528 3396.09 897.72 3365.47 897.577L3343.3 897.473L3343.3 882.561L3343.3 867.649L3383.41 868.262C3405.47 868.6 3433.89 869.011 3446.56 869.175C3459.23 869.34 3491.76 869.787 3518.86 870.169L3568.12 870.864L3568.15 884.163C3568.17 891.477 3567.84 897.8 3567.43 898.213ZM3568.15 937.092L3568.12 950.505L3547.56 950.584C3536.25 950.628 3521.21 950.724 3514.14 950.798C3466.49 951.297 3344.26 951.488 3343.83 951.065C3343.13 950.366 3343.12 923.117 3343.82 922.419C3344.57 921.669 3566.99 922.57 3567.8 923.326C3568.01 923.521 3568.17 929.716 3568.15 937.092ZM3568.15 989.306L3568.12 1002.6L3518.86 1003.3C3491.76 1003.68 3459.23 1004.13 3446.56 1004.29C3433.89 1004.46 3405.47 1004.87 3383.41 1005.21L3343.3 1005.82L3343.3 990.908L3343.3 975.996L3365.47 975.887C3396.73 975.733 3516.68 974.939 3543.91 974.703C3556.43 974.596 3567.02 974.845 3567.43 975.257C3567.84 975.669 3568.17 981.991 3568.15 989.306ZM3560.49 1048.89C3556.26 1048.96 3505.92 1049.86 3448.62 1050.9C3391.33 1051.94 3344.18 1052.69 3343.85 1052.56C3343.53 1052.43 3343.27 1047.27 3343.29 1041.08L3343.32 1029.83L3363.32 1029.63C3374.32 1029.53 3404.92 1029.09 3431.33 1028.66C3491.89 1027.68 3516.71 1027.33 3545.35 1027.05L3568.12 1026.83L3568.15 1037.8L3568.18 1048.77L3560.49 1048.89ZM3295.21 831.438L3295.18 842.427L3273.16 842.27C3261.05 842.183 3249.19 842.063 3246.79 842.004C3244.4 841.945 3204 841.323 3157.02 840.622C3110.04 839.921 3071.27 839.197 3070.85 839.011C3069.56 838.433 3069.73 815.531 3071.02 815.613C3072.11 815.682 3129.02 816.762 3232.58 818.68C3252.04 819.041 3273.93 819.427 3281.22 819.538C3288.51 819.649 3294.64 819.9 3294.85 820.094C3295.07 820.289 3295.23 825.393 3295.21 831.438ZM3210.49 896.902C3107.45 896.458 3071.95 896.119 3070.79 895.567C3070 895.19 3069.38 864.516 3070.15 863.745C3070.46 863.438 3272.25 866.321 3287.66 866.853L3295.18 867.113L3295.21 882.189L3295.23 897.266L3210.49 896.902ZM3295.21 937.093L3295.18 951.924L3267.38 952.05C3215.62 952.286 3104.74 952.99 3087.29 953.193L3069.95 953.395L3069.95 936.843L3069.95 920.291L3144.92 920.737C3186.16 920.982 3236.68 921.266 3257.19 921.369C3277.7 921.471 3294.65 921.715 3294.86 921.91C3295.06 922.105 3295.22 928.938 3295.21 937.093ZM3291.17 1006.51C3288.94 1006.62 3277.69 1006.85 3266.18 1007.02C3254.66 1007.19 3212.05 1007.87 3171.49 1008.53C3130.92 1009.19 3091.45 1009.77 3083.78 1009.82L3069.83 1009.91L3069.87 994.227C3069.89 985.6 3070.2 978.253 3070.55 977.898C3070.9 977.544 3109.06 977.097 3155.33 976.906C3201.61 976.714 3252.01 976.394 3267.33 976.195L3295.18 975.834L3295.21 991.071L3295.23 1006.31L3291.17 1006.51ZM3294.58 1053.34C3294.21 1053.51 3287.77 1053.76 3280.26 1053.9C3256.16 1054.36 3200.26 1055.4 3135.42 1056.61C3100.68 1057.25 3071.7 1057.82 3071.03 1057.86C3069.73 1057.94 3069.55 1035.04 3070.85 1034.46C3071.27 1034.27 3110.04 1033.55 3157.02 1032.85C3204 1032.15 3244.4 1031.52 3246.79 1031.46C3249.19 1031.41 3261.05 1031.29 3273.16 1031.2L3295.18 1031.04L3295.21 1042.04C3295.23 1048.09 3294.94 1053.17 3294.58 1053.34ZM3022.27 827.286L3022.23 838.366L2995.21 838.048C2980.34 837.873 2959.41 837.59 2948.69 837.419C2859.03 835.989 2829.52 835.54 2815.26 835.389C2806.19 835.293 2798.31 834.99 2797.75 834.716C2796.49 834.103 2796.32 812.093 2797.56 811.382C2798.49 810.855 2814.8 811.039 2877.66 812.281C2897.5 812.672 2923.12 813.139 2934.61 813.319C2946.1 813.498 2965.2 813.822 2977.05 814.039C2988.91 814.255 3003.61 814.509 3009.72 814.603C3015.83 814.698 3021.16 815.097 3021.57 815.49C3021.97 815.883 3022.28 821.192 3022.27 827.286ZM3022.27 879.435C3022.28 887.796 3022 894.923 3021.65 895.272C3021.31 895.621 2980.03 895.694 2929.92 895.434C2805.75 894.789 2798.15 894.703 2797.36 893.914C2796.99 893.535 2796.69 885.585 2796.7 876.247L2796.73 859.269L2811.4 859.45C2819.47 859.55 2845.15 859.952 2868.47 860.344C2891.8 860.737 2921.88 861.204 2935.32 861.383C3012.95 862.419 3020.58 862.61 3021.54 863.546C3021.92 863.924 3022.25 871.074 3022.27 879.435ZM3022.26 937.079L3022.24 953.31L2990.24 953.487C2972.63 953.584 2921.89 953.828 2877.47 954.03L2796.71 954.398L2796.7 936.727L2796.7 919.057L2878.88 919.434C3013.2 920.049 3021.53 920.11 3021.92 920.486C3022.12 920.685 3022.28 928.151 3022.26 937.079ZM3022.27 993.987C3022.28 1002.35 3021.96 1009.51 3021.56 1009.9C3020.57 1010.86 3013.28 1011.04 2935.32 1012.09C2921.88 1012.26 2891.8 1012.73 2868.47 1013.12C2845.15 1013.52 2819.47 1013.92 2811.4 1014.02L2796.73 1014.2L2796.7 997.221C2796.69 987.883 2797.03 979.892 2797.46 979.464C2797.88 979.035 2834.52 978.515 2878.87 978.31C2923.21 978.104 2973.26 977.77 2990.08 977.567C3006.89 977.363 3021.01 977.554 3021.45 977.99C3021.88 978.427 3022.25 985.625 3022.27 993.987ZM3021.27 1057.97C3020.09 1058.71 3008.28 1059.01 2934.61 1060.15C2923.12 1060.33 2897.5 1060.8 2877.66 1061.19C2818.95 1062.35 2798.52 1062.62 2797.6 1062.25C2796.35 1061.76 2796.46 1039.71 2797.72 1038.92C2798.3 1038.55 2805.87 1038.18 2814.55 1038.08C2828.25 1037.93 2853.64 1037.54 2947.29 1036.06C2958.01 1035.89 2979.25 1035.59 2994.5 1035.4L3022.23 1035.05L3022.27 1046.19C3022.28 1052.32 3021.84 1057.62 3021.27 1057.97ZM2746.28 834.416C2744.97 834.359 2732 834.132 2717.44 833.91C2702.88 833.689 2671.89 833.196 2648.57 832.814C2625.25 832.433 2593.91 831.96 2578.91 831.762C2563.92 831.564 2545.37 831.298 2537.69 831.17L2523.72 830.938L2523.75 818.545L2523.78 806.15L2541.56 806.329C2551.34 806.427 2561.3 806.556 2563.69 806.615C2566.09 806.675 2583.33 806.982 2602.02 807.299C2620.71 807.616 2661.32 808.331 2692.26 808.888L2748.52 809.901L2748.58 822.21C2748.64 833.759 2748.5 834.511 2746.28 834.416ZM2748.61 877.007L2748.59 894.688L2722.58 894.529C2708.28 894.442 2657.7 894.162 2610.17 893.906L2523.76 893.44L2523.79 874.223L2523.81 855.008L2538.41 855.254C2546.45 855.389 2570.88 855.775 2592.71 856.111C2614.54 856.447 2658.37 857.122 2690.11 857.611C2721.84 858.1 2747.99 858.686 2748.22 858.914C2748.45 859.141 2748.63 867.283 2748.61 877.007ZM2711.32 954.921C2690.8 955.024 2640.2 955.227 2598.88 955.37L2523.76 955.63L2523.76 936.712V917.794L2600.29 918.082C2642.38 918.241 2692.97 918.45 2712.71 918.547L2748.59 918.724L2748.61 936.728L2748.64 954.731L2711.32 954.921ZM2748.61 997.182L2748.59 1014.83L2739.9 1014.98C2735.12 1015.07 2709.59 1015.48 2683.16 1015.9C2623.3 1016.84 2557.64 1017.89 2538.41 1018.21L2523.81 1018.46L2523.79 999.245L2523.76 980.028L2610.17 979.566C2657.7 979.311 2708.12 979.024 2722.22 978.93C2736.32 978.835 2748.03 978.932 2748.25 979.147C2748.46 979.36 2748.63 987.476 2748.61 997.182ZM2199.19 450.601C2264.49 526.117 2311.19 621.823 2338.44 735.966C2340.8 745.852 2342.55 754.123 2342.33 754.347C2342.11 754.569 2331.08 754.519 2317.82 754.234L2293.72 753.715L2290.56 740.843C2268 648.998 2229.84 566.194 2181.1 503.341C2165.13 482.75 2157.46 474.303 2135.26 452.827C2107.81 426.285 2090.98 413.16 2062.26 395.907C1985.65 349.883 1894.25 335.983 1807.61 357.179C1776.48 364.795 1749.58 374.968 1685.41 403.402C1611.97 435.941 1574.34 447.933 1529.82 452.98C1503.21 455.997 1460.61 454.247 1428.79 448.829C1379.97 440.516 1330.38 420.423 1282.87 389.696C1245.89 365.777 1216.14 342.115 1154.47 287.582C1099.71 239.159 1080.09 222.496 1055.56 203.618C1001.01 161.619 956.224 136.41 905.185 118.967C879.834 110.304 863.247 106.289 838.008 102.706C782.024 94.7605 723.033 94.397 672.239 101.685C593.922 112.922 519.376 142.588 449.175 190.455C408.489 218.196 361.368 258.75 331.199 291.987C256.844 373.906 202.478 460.362 162.065 560.955C145.273 602.753 127.645 660.155 118.788 701.879C117.868 706.21 116.312 713.562 115.327 718.216C108.263 751.622 102.213 795.259 98.9257 836.519C94.8485 887.695 94.5763 980.081 98.3558 1029.74C104.854 1115.13 119.137 1188.08 143.937 1262.57C183.957 1382.76 245.174 1486.94 331.492 1581.76C361.998 1615.27 408.507 1655.28 449.175 1683.01C566.617 1763.09 693.689 1791.54 840.012 1770.49C903.093 1761.42 965.605 1734.53 1030.44 1688.57C1061.92 1666.26 1088.4 1644.33 1154.84 1585.55C1209.59 1537.1 1237.26 1514.71 1269.86 1492.44C1323.33 1455.94 1375.4 1433.73 1428.85 1424.63C1461.54 1419.06 1505.4 1417.38 1531.85 1420.68C1576.59 1426.26 1612.89 1437.93 1685.41 1470.07C1735.85 1492.42 1751.54 1498.8 1776.52 1507.12C1817.04 1520.61 1848.42 1525.82 1889.12 1525.81C1913.16 1525.8 1931.34 1524 1954.17 1519.38C1999.13 1510.28 2040.28 1492.92 2079.98 1466.29C2116.22 1441.99 2153.84 1405.94 2183.6 1366.97C2230.72 1305.29 2268.47 1222.59 2290.55 1132.63L2293.71 1119.76L2317.84 1119.26C2331.11 1118.98 2342.14 1118.93 2342.35 1119.14C2342.77 1119.57 2335.66 1149.85 2331.45 1165.51C2327.15 1181.54 2314.85 1219.22 2308.58 1235.6C2280.42 1309.1 2244.73 1370.2 2199.19 1422.87C2169.33 1457.4 2136.84 1485.9 2100.11 1509.76C2050.61 1541.93 1993.12 1563.26 1936.96 1570.31C1901.61 1574.74 1862.61 1574.22 1828.07 1568.85C1785.19 1562.18 1744.79 1548.49 1671.36 1515.71C1630.24 1497.36 1610.53 1489.37 1588.92 1482.31C1542.4 1467.11 1512.26 1463.71 1463.08 1468.11C1392.29 1474.45 1333.09 1500.93 1258.52 1559.59C1240.43 1573.82 1214.1 1596.3 1176.01 1630.06C1105.97 1692.12 1076.61 1715.66 1035.92 1742.4C987.685 1774.09 934.973 1797.77 884.916 1810.24C848.172 1819.39 800.215 1824.29 747.886 1824.25C702.845 1824.21 670.195 1821.05 631.705 1813.02C531.794 1792.19 444.1 1746.8 353.525 1669.06C337.707 1655.49 292.542 1610.35 279.612 1595.19C224.786 1530.93 185.417 1471.69 148.906 1398.51C88.6776 1277.78 55.8262 1146.16 49.1943 999C48.2517 978.096 48.246 895.56 49.185 874.459C54.938 745.223 80.4243 630.773 128.206 519.601C165.745 432.258 214.801 354.074 279.617 278.284C293.343 262.234 337.381 218.215 353.879 204.053C462.76 110.593 570.88 62.3997 697.715 50.7933C719.01 48.8452 775.717 48.7483 798.876 50.6214C850.309 54.7806 879.781 60.3857 918.886 73.4467C981.827 94.469 1037.46 127.123 1107.36 184.074C1125.58 198.918 1134.12 206.296 1176.01 243.413C1250.46 309.379 1281.97 334.147 1322.1 358.252C1361.36 381.84 1404.01 397.586 1443.75 403.173C1460.81 405.571 1492 407.748 1503.44 407.34C1551.5 405.625 1588.68 394.647 1671.36 357.756C1756.8 319.627 1800.02 306.285 1853.51 301.524C1868.5 300.19 1900.37 299.864 1914.73 300.9C1967.01 304.671 2020.49 319.881 2066.12 343.965C2083.5 353.141 2086.78 355.046 2100.12 363.706C2136.7 387.466 2169.41 416.157 2199.19 450.601ZM2735.32 1063.78C2728 1063.85 2704.2 1064.26 2682.45 1064.68C2660.69 1065.1 2626.05 1065.73 2605.48 1066.08C2584.9 1066.44 2566.1 1066.78 2563.7 1066.85C2561.31 1066.91 2551.34 1067.04 2541.56 1067.14L2523.78 1067.32L2523.75 1054.93L2523.73 1042.53L2536.3 1042.32C2548.09 1042.13 2612.34 1041.15 2665.85 1040.35C2678.88 1040.16 2699.92 1039.87 2712.6 1039.7C2725.29 1039.53 2738.57 1039.25 2742.13 1039.06L2748.59 1038.73L2748.62 1051.18L2748.64 1063.63L2735.32 1063.78ZM2475.64 817.913L2475.59 830.23L2383.69 828.843C2333.15 828.079 2282.6 827.278 2271.36 827.062L2250.92 826.669L2250.85 813.884L2250.78 801.099L2267.62 801.356C2287.16 801.654 2290.67 801.714 2395.68 803.534C2439.26 804.289 2475.09 805.062 2475.31 805.251C2475.52 805.44 2475.67 811.139 2475.64 817.913ZM2161.8 509.913C2207.04 567.457 2242.06 638.525 2265 719.356C2270.25 737.844 2273.73 752.242 2273.11 752.865C2272.59 753.381 2270.66 753.36 2205.24 752.142C2183.1 751.73 2157.14 751.279 2147.55 751.141C2130.91 750.902 2005.04 748.594 1931.6 747.179C1912.52 746.813 1887.51 746.368 1876.02 746.192C1864.53 746.015 1846.38 745.711 1835.68 745.517C1797.55 744.823 1777.17 744.447 1764.69 744.201L1752.02 743.954L1741.68 730.442C1728.17 712.793 1701.77 686.013 1684.91 672.844C1638.41 636.529 1587.14 613.579 1531.8 604.319C1439.1 588.807 1348.16 611.037 1271.69 667.903C1260.69 676.084 1256.38 679.992 1237.21 699.185C1216.99 719.434 1214.5 722.213 1204.84 735.398C1189.29 756.614 1176.09 779.259 1166.06 801.952C1164.16 806.256 1162.56 809.827 1162.49 809.889C1162.39 809.998 1089.9 809.039 1043.85 808.321C1031.22 808.123 1011.15 807.824 999.265 807.655C922.262 806.562 888.732 806.036 880.915 805.797L871.996 805.523L871.97 768.48C871.955 748.107 871.634 731.418 871.256 731.393C870.878 731.369 849.243 731.328 823.179 731.301L775.789 731.251L775.787 936.678L775.785 1142.1L783.252 1142.17C790.552 1142.23 869.918 1142.14 871.264 1142.07C871.637 1142.05 871.961 1125.37 871.982 1105L872.02 1067.97L880.187 1067.65C884.678 1067.48 899.045 1067.2 912.113 1067.05C944.785 1066.66 971.599 1066.28 1022.92 1065.45C1079.94 1064.54 1162.35 1063.43 1162.49 1063.58C1162.56 1063.64 1164.16 1067.22 1166.06 1071.52C1178.79 1100.44 1196.29 1128.5 1217.53 1154.08C1230.32 1169.48 1257.55 1195.09 1274.17 1207.33C1346.18 1260.37 1433.19 1282.82 1520.38 1270.86C1581.28 1262.5 1634.89 1239.61 1684.9 1200.62C1701.75 1187.48 1728.13 1160.72 1741.68 1143.03L1752.02 1129.52L1764.68 1129.26C1771.64 1129.12 1785.47 1128.86 1795.42 1128.7C1805.36 1128.53 1822.87 1128.22 1834.32 1128C1845.78 1127.79 1864.54 1127.47 1876.03 1127.28C1887.51 1127.1 1912.83 1126.65 1932.29 1126.27C1951.76 1125.9 1994.87 1125.11 2028.11 1124.51C2061.35 1123.91 2115.41 1122.93 2148.25 1122.32C2181.08 1121.7 2215.48 1121.1 2224.69 1120.98C2233.9 1120.86 2248.45 1120.6 2257.01 1120.42C2265.58 1120.23 2272.81 1120.31 2273.09 1120.59C2274.28 1121.78 2264.06 1159.05 2255.45 1184.87C2232.04 1255.16 2200.23 1315.37 2159.35 1366.76C2145.35 1384.36 2110.35 1419.35 2093.93 1432.16C2028.38 1483.29 1961.09 1507.08 1884.42 1506.22C1845.79 1505.79 1819.99 1501.3 1780.41 1488.1C1758.51 1480.81 1740.56 1473.42 1687.24 1449.75C1616.77 1418.46 1572.27 1404.8 1527.1 1400.59C1504.34 1398.47 1471.27 1399.53 1439.71 1403.41C1379.49 1410.8 1319.86 1434.81 1259.52 1475.97C1223.47 1500.57 1191.68 1526.64 1121.22 1589.41C1107.03 1602.05 1093.99 1613.51 1092.25 1614.88C1090.5 1616.24 1084.12 1621.63 1078.06 1626.86C1020.75 1676.31 965.291 1711.41 912.632 1731.54C886.025 1741.72 864.44 1747.39 837.465 1751.31C681.365 1773.98 551.677 1740.14 429.381 1644.82C402.454 1623.84 390.355 1613.03 362.163 1584.76C334.759 1557.29 321.908 1542.82 300.631 1515.48C231.317 1426.42 180.326 1325.15 150.022 1216.37C132.677 1154.11 122.527 1094.3 117.399 1024.13C115.21 994.176 115.057 883.728 117.161 852.633C130.792 651.257 198.426 479.543 322.765 330.624C340.455 309.439 385.192 264.705 406.094 247.302C462.175 200.608 513.679 169.227 569.824 147.542C650.876 116.237 738.998 107.879 837.468 122.155C899.688 131.175 960.379 157.745 1023.94 203.79C1038.35 214.23 1064.67 235.053 1078.06 246.61C1084.12 251.834 1090.5 257.225 1092.25 258.59C1093.99 259.955 1107.03 271.415 1121.22 284.059C1191.8 346.932 1223.35 372.808 1259.53 397.479C1325.06 442.161 1386.37 465.425 1455.34 471.784C1502.37 476.121 1537.65 473.954 1576.07 464.372C1613.06 455.145 1636.74 446.184 1710.82 413.36C1774.59 385.111 1812.45 373.145 1852.13 368.703C1866.63 367.081 1900.19 366.736 1915.46 368.054C1955.15 371.479 1993.26 382.283 2030.1 400.554C2057.1 413.943 2075.43 426.283 2108.26 453.148C2117.06 460.358 2151.74 497.122 2161.8 509.913ZM2475.67 874.162L2475.65 893.242L2451 893.157C2437.44 893.11 2386.86 892.866 2338.59 892.614L2250.83 892.155L2250.81 871.846C2250.8 860.676 2251.09 851.404 2251.45 851.242C2252.01 850.987 2319.48 851.909 2442.99 853.86C2460.57 854.138 2475.12 854.526 2475.32 854.724C2475.53 854.922 2475.68 863.669 2475.67 874.162ZM2475.38 956.067C2465.02 956.215 2370.17 956.694 2319.63 956.852L2250.82 957.069L2250.82 936.715L2250.82 916.362L2321.04 916.607C2359.66 916.743 2410.24 916.962 2433.44 917.096L2475.62 917.339L2475.66 936.7C2475.67 947.349 2475.55 956.064 2475.38 956.067ZM2475.67 999.975L2475.65 1019L2464.18 1019.24C2457.87 1019.37 2443.6 1019.6 2432.47 1019.75C2421.34 1019.9 2376.2 1020.58 2332.17 1021.28C2288.14 1021.97 2251.81 1022.4 2251.45 1022.23C2251.09 1022.07 2250.8 1012.81 2250.81 1001.65L2250.83 981.376L2362.89 980.796C2424.53 980.477 2475.12 980.38 2475.32 980.582C2475.53 980.783 2475.68 989.511 2475.67 999.975ZM2462 1068.72C2454.48 1068.79 2420.54 1069.37 2386.57 1070.01C2326.9 1071.14 2305.48 1071.52 2268.28 1072.1L2250.78 1072.37L2250.85 1059.58L2250.92 1046.79L2270.65 1046.4C2281.5 1046.19 2332.06 1045.38 2382.99 1044.61L2475.61 1043.22L2475.64 1055.9L2475.66 1068.58L2462 1068.72ZM2189.89 825.881C2182.8 825.746 2158.21 825.341 2135.25 824.981C2112.29 824.622 2071.88 823.985 2045.45 823.566C2019.02 823.148 1993 822.737 1987.62 822.655L1977.84 822.503L1977.87 809.325L1977.9 796.146L2073.48 797.885C2126.06 798.843 2176.64 799.697 2185.88 799.785L2202.69 799.945L2202.74 813.036L2202.78 826.127L2189.89 825.881ZM2202.72 871.349L2202.7 891.859L2178.12 891.695C2164.6 891.605 2114.01 891.343 2065.7 891.111L1977.87 890.69L1977.9 868.61L1977.92 846.53L1985.45 846.778C1989.59 846.914 2003.34 847.164 2016.01 847.333C2028.67 847.502 2059.08 847.962 2083.57 848.357C2108.07 848.75 2137.84 849.201 2149.75 849.356C2189.63 849.88 2201.98 850.147 2202.37 850.494C2202.58 850.684 2202.74 860.068 2202.72 871.349ZM2166.8 957.705C2082.43 958.049 1992.48 958.477 1987.32 958.56C1977.09 958.724 1977.85 960.495 1977.87 936.608L1977.88 915.05L2041.76 915.218C2076.89 915.311 2127.47 915.511 2154.15 915.663L2202.66 915.938L2202.71 936.748L2202.75 957.559L2166.8 957.705ZM2202.73 1002.81L2202.71 1023.26L2189.82 1023.48C2174.54 1023.75 2144.73 1024.21 2110.03 1024.7C2096.22 1024.89 2074.6 1025.22 2061.99 1025.43C2049.37 1025.64 2028.69 1025.95 2016.02 1026.13C2003.34 1026.3 1989.59 1026.55 1985.45 1026.69L1977.92 1026.94L1977.9 1004.88L1977.87 982.824L2066.41 982.38C2115.1 982.136 2165.53 981.857 2178.46 981.759C2191.39 981.661 2202.14 981.757 2202.36 981.972C2202.57 982.186 2202.74 991.562 2202.73 1002.81ZM2202.44 1073.44C2193.24 1073.51 2149.13 1074.26 2073.51 1075.61L1977.9 1077.32L1977.87 1064.15L1977.84 1050.97L1987.62 1050.82C1999.06 1050.64 2074.16 1049.44 2133.82 1048.48C2156.78 1048.11 2181.67 1047.69 2189.13 1047.54L2202.7 1047.27L2202.73 1060.36C2202.74 1067.55 2202.62 1073.44 2202.44 1073.44ZM1929.79 808.07C1929.77 814.875 1929.42 820.776 1929.02 821.183C1928.61 821.59 1922.49 821.828 1915.41 821.711C1908.33 821.595 1883.75 821.2 1860.78 820.832C1837.81 820.463 1812.84 820.038 1805.29 819.885L1791.55 819.608L1787.41 809.442C1785.14 803.851 1782.62 798.188 1781.83 796.857C1781.03 795.526 1780.47 794.037 1780.58 793.55C1780.7 793.062 1796.57 792.934 1815.85 793.265C1872.9 794.242 1893.04 794.561 1911.55 794.778C1921.18 794.892 1929.22 795.144 1929.43 795.341C1929.64 795.536 1929.8 801.264 1929.79 808.07ZM1929.75 868.555L1929.69 890.515L1870 890.098C1837.17 889.869 1809.99 889.367 1809.6 888.983C1809.2 888.599 1808.14 883.775 1807.23 878.261C1806.31 872.747 1804.22 862.91 1802.57 856.4C1800.92 849.89 1799.78 844.41 1800.04 844.224C1800.65 843.786 1928.91 845.798 1929.42 846.253C1929.63 846.442 1929.78 856.478 1929.75 868.555ZM1885.47 959.186C1861.1 959.341 1834.63 959.521 1826.67 959.587L1812.18 959.707V936.731L1812.18 913.756L1870.92 914.17L1929.66 914.583L1929.73 936.743L1929.8 958.904L1885.47 959.186ZM1696.09 750.051C1704.88 760.436 1715.47 775.281 1722.89 787.602C1728.83 797.47 1738.71 816.445 1738.76 818.076C1738.78 818.659 1733.95 819.022 1728.04 818.881C1722.12 818.74 1713.21 818.524 1708.24 818.4L1699.2 818.175L1695.71 811.859C1678.38 780.498 1648.88 748.388 1618.22 727.511C1574.41 697.674 1522.6 682.233 1469.98 683.328C1424.41 684.276 1378.11 698.164 1340.13 722.272C1308.84 742.136 1280.32 770.597 1260.89 801.352L1254.66 811.217L1234.84 811.217C1223.94 811.217 1215.02 810.922 1215.02 810.563C1215.02 809.02 1226.95 787.787 1233.27 778.084C1252.58 748.444 1283.9 716.787 1314.21 696.283C1381.1 651.039 1466.96 636.331 1546.66 656.466C1604.29 671.024 1657.33 704.244 1696.09 750.051ZM1929.79 1005.6L1929.77 1027.42L1895.93 1027.95C1877.31 1028.25 1848.23 1028.73 1831.31 1029.03C1814.38 1029.33 1800.32 1029.42 1800.05 1029.24C1799.79 1029.05 1800.92 1023.58 1802.57 1017.07C1804.22 1010.56 1806.31 1000.72 1807.21 995.197C1808.12 989.678 1809.32 984.864 1809.89 984.499C1811.03 983.761 1928.63 982.599 1929.35 983.319C1929.6 983.57 1929.79 993.593 1929.79 1005.6ZM1753.27 857.661C1756.99 870.646 1760.57 886.915 1760.13 888.779C1759.93 889.626 1731.81 889.928 1726.42 889.142C1724.61 888.879 1723.96 887.365 1721.9 878.625C1720.58 873.009 1717.59 862.683 1715.26 855.675L1711.03 842.935L1729.54 842.996C1739.72 843.029 1748.37 843.379 1748.77 843.773C1749.18 844.167 1751.2 850.416 1753.27 857.661ZM1929.79 1065.78L1929.76 1078.49L1914.7 1078.63C1900.5 1078.77 1882.84 1079.06 1839.2 1079.85C1793.7 1080.68 1780.77 1080.68 1780.58 1079.89C1780.47 1079.42 1781.03 1077.94 1781.83 1076.61C1782.62 1075.28 1785.14 1069.62 1787.41 1064.03L1791.55 1053.86L1805.29 1053.58C1812.84 1053.43 1837.81 1053.01 1860.78 1052.64C1883.75 1052.27 1908.33 1051.87 1915.41 1051.76C1922.49 1051.64 1928.62 1051.89 1929.05 1052.31C1929.47 1052.74 1929.8 1058.8 1929.79 1065.78ZM1652.33 798.991C1656.33 804.197 1660.94 810.555 1662.57 813.12L1665.52 817.783L1555.67 816.115C1495.25 815.198 1435.79 814.286 1423.53 814.088C1411.28 813.89 1389.94 813.572 1376.11 813.382C1362.29 813.191 1341.24 812.9 1329.35 812.736C1300.59 812.339 1289.95 812.011 1289.43 811.5C1288.67 810.757 1297.25 799.45 1306.77 788.626C1379.29 706.207 1499.95 688.219 1593.49 745.882C1613.56 758.256 1637.86 780.189 1652.33 798.991ZM1764.16 944.397L1763.77 959.696L1745.79 959.716L1727.81 959.736L1728.16 952.779C1728.35 948.953 1728.64 943.404 1728.79 940.448C1728.95 937.492 1728.75 930.295 1728.35 924.455L1727.64 913.836L1745.54 913.784L1763.44 913.734L1763.99 921.416C1764.29 925.64 1764.36 935.982 1764.16 944.397ZM1688.56 867.185C1691.33 875.645 1694.77 888.556 1694.35 888.969C1694.12 889.207 1348.75 887.576 1292.87 887.074C1273.64 886.901 1257.55 886.593 1257.11 886.391C1255.16 885.492 1265.58 854.081 1272.22 840.832L1274.66 835.96L1284.94 836.115C1290.59 836.2 1314.63 836.577 1338.37 836.952C1437.57 838.52 1577.94 840.671 1616.94 841.221C1639.95 841.545 1663.38 841.945 1669 842.108L1679.21 842.406L1682.49 850.535C1684.29 855.007 1687.02 862.499 1688.56 867.185ZM1699.45 926.486C1700.12 938.305 1699.2 958.365 1697.95 959.623C1697.63 959.938 1602.77 960.675 1487.14 961.262C1371.51 961.847 1271.26 962.373 1264.37 962.431L1251.83 962.534L1251.22 952.817C1250.45 940.582 1250.45 932.91 1251.21 920.763L1251.81 911.156L1327.53 911.525C1369.18 911.728 1469.52 912.17 1550.52 912.506C1631.51 912.843 1698 913.304 1698.27 913.531C1698.53 913.759 1699.07 919.589 1699.45 926.486ZM1759.06 992.396C1756.27 1006.98 1749.89 1029.18 1748.26 1029.95C1747.81 1030.16 1739.24 1030.4 1729.22 1030.49L1711 1030.64L1715.25 1017.85C1717.58 1010.81 1720.58 1000.45 1721.91 994.822C1724.73 982.846 1722.01 984.135 1744.94 983.892C1753.17 983.804 1760.01 984.157 1760.13 984.676C1760.25 985.195 1759.77 988.669 1759.06 992.396ZM1692.96 991.239C1690.78 1000.1 1686.45 1013.12 1682.43 1022.93L1679.1 1031.07L1668.94 1031.36C1663.35 1031.52 1639.95 1031.92 1616.94 1032.25C1593.93 1032.57 1531.55 1033.51 1478.32 1034.34C1425.09 1035.17 1362.1 1036.14 1338.35 1036.5C1314.6 1036.86 1290.55 1037.23 1284.92 1037.33L1274.67 1037.51L1272.22 1032.64C1265.58 1019.39 1255.16 987.977 1257.11 987.078C1257.55 986.875 1273.64 986.569 1292.87 986.398C1348.93 985.898 1694.12 984.268 1694.36 984.502C1694.47 984.62 1693.85 987.651 1692.96 991.239ZM1733.47 1066.75C1666.67 1197.37 1516.77 1257.83 1379.4 1209.57C1336.58 1194.52 1303.8 1173.79 1271.13 1141.09C1254.89 1124.83 1243.48 1111.06 1233.27 1095.39C1226.95 1085.68 1215.02 1064.45 1215.02 1062.91C1215.02 1062.55 1223.94 1062.25 1234.84 1062.25L1254.66 1062.25L1260.89 1072.12C1280.33 1102.88 1308.88 1131.38 1340.13 1151.19C1418.2 1200.69 1519.4 1203.19 1599.51 1157.6C1620.77 1145.5 1636.68 1133.32 1654.47 1115.53C1671.02 1098.98 1683.57 1082.72 1694.73 1063.37L1699.39 1055.3L1708.33 1055.07C1713.25 1054.95 1722.12 1054.73 1728.04 1054.59C1733.95 1054.45 1738.78 1054.81 1738.76 1055.39C1738.74 1055.98 1736.36 1061.08 1733.47 1066.75ZM1652.33 1074.48C1648.27 1079.75 1639.82 1089.16 1633.26 1095.72C1592.02 1136.94 1538.47 1159.75 1479.79 1161.11C1414.07 1162.63 1350.6 1134.65 1306.77 1084.84C1297.24 1074.01 1288.67 1062.71 1289.44 1061.98C1290.01 1061.43 1301.23 1061.07 1327.96 1060.73C1339.88 1060.58 1369.67 1060.14 1394.16 1059.76C1418.65 1059.37 1448.74 1058.93 1461.03 1058.77C1473.32 1058.61 1524.36 1057.86 1574.45 1057.09L1665.52 1055.69L1662.56 1060.35C1660.94 1062.91 1656.33 1069.27 1652.33 1074.48ZM1239.31 843.762C1235.23 854.109 1230.24 870.15 1228.27 879.211L1226.6 886.903L1208.44 886.883C1198.44 886.872 1190.29 886.598 1190.32 886.275C1190.88 879.716 1199 849.187 1202.54 840.301L1204.54 835.285L1222.79 835.265C1232.83 835.253 1241.3 835.506 1241.62 835.825C1241.94 836.144 1240.9 839.716 1239.31 843.762ZM1150.06 847.15C1148.11 854.336 1145.39 866.04 1144.02 873.161L1141.52 886.108L1136.76 886.228C1134.14 886.294 1073.49 886.039 1001.98 885.663L871.958 884.978L871.958 857.508V830.038L898.997 830.359C913.868 830.535 934.805 830.82 945.523 830.991C956.242 831.162 987.263 831.643 1014.46 832.059C1041.65 832.476 1073.62 832.971 1085.48 833.158C1097.35 833.346 1117.48 833.581 1130.22 833.681C1142.95 833.78 1153.43 833.912 1153.49 833.974C1153.56 834.036 1152.02 839.965 1150.06 847.15ZM1222.13 936.804V962.523L1204.73 962.544C1195.16 962.556 1187.18 962.251 1186.99 961.868C1186.23 960.29 1185.71 933.526 1186.24 922.645L1186.8 910.946L1204.38 910.925C1214.04 910.914 1221.99 910.945 1222.04 910.994C1222.09 911.044 1222.13 922.659 1222.13 936.804ZM1231.49 1006.67C1233.13 1012.37 1236.08 1021.19 1238.06 1026.26C1240.04 1031.33 1241.67 1036.09 1241.68 1036.83C1241.7 1038.35 1205.62 1038.82 1204.12 1037.32C1202.17 1035.37 1192.26 1000.01 1190.59 989.02C1190.24 986.725 1191.12 986.605 1208.47 986.586L1226.71 986.565L1227.62 991.432C1228.11 994.109 1229.86 1000.97 1231.49 1006.67ZM1138.17 936.848C1138.17 951.304 1137.96 963.136 1137.7 963.139C1134.3 963.182 980.125 963.736 933.694 963.873L871.958 964.056L871.957 936.72L871.958 909.384L933.69 909.585C967.643 909.695 1027.46 909.89 1066.61 910.016C1105.76 910.143 1137.88 910.318 1137.98 910.404C1138.09 910.491 1138.17 922.391 1138.17 936.848ZM1144.12 1000.79C1145.45 1007.64 1148.13 1019.16 1150.1 1026.4L1153.67 1039.57L1130.37 1039.77C1117.55 1039.88 1097.35 1040.13 1085.49 1040.31C1073.62 1040.5 1041.65 1040.99 1014.46 1041.41C987.263 1041.83 956.242 1042.31 945.523 1042.48C934.805 1042.65 913.871 1042.93 899.001 1043.11L871.967 1043.43L871.953 1016.1L871.94 988.778L888.734 988.572C946.675 987.86 1141.3 987.21 1141.49 987.727C1141.61 988.071 1142.8 993.952 1144.12 1000.79ZM843.327 810.783C847.656 823.639 836.461 836.803 822.765 834.96C814.763 833.882 807.51 826.132 806.988 818.103C806.262 806.921 813.294 798.576 824.033 797.878C833.696 797.25 840.244 801.63 843.327 810.783ZM843.653 891.142C844.867 894.93 844.539 899.662 842.764 903.984C837.056 917.886 818.201 919.347 809.458 906.565C804.644 899.528 807.04 886.9 814.193 881.612C824.694 873.85 839.664 878.692 843.653 891.142ZM842.764 969.485C844.608 973.975 844.858 978.542 843.497 982.878C842.171 987.102 835.638 993.589 831.341 994.949C824.855 997.002 816.593 994.835 811.473 989.736C808.682 986.958 806.571 979.043 807.183 973.656C807.678 969.303 808.251 968.263 812.505 964.009C816.595 959.92 817.973 959.114 822.191 958.349C830.952 956.76 839.422 961.346 842.764 969.485ZM844.054 1054.28C844.73 1060.7 842.857 1066.17 838.521 1070.44C834.299 1074.6 830.355 1076 824.05 1075.59C813.187 1074.89 806.254 1066.67 806.988 1055.37C807.737 1043.84 819.88 1035.79 831.457 1039.14C837.414 1040.86 843.397 1048.06 844.054 1054.28Z" fill="black"/>
</svg>
