<?xml version="1.0" encoding="UTF-8"?>
<!DOCTYPE svg PUBLIC "-//W3C//DTD SVG 1.1//EN" "http://www.w3.org/Graphics/SVG/1.1/DTD/svg11.dtd">
<!-- Creator: CorelDRAW 2017 -->
<svg xmlns="http://www.w3.org/2000/svg" xml:space="preserve" width="450px" height="115px" version="1.1" style="shape-rendering:geometricPrecision; text-rendering:geometricPrecision; image-rendering:optimizeQuality; fill-rule:evenodd; clip-rule:evenodd"
viewBox="0 0 38.23 8.8"
 xmlns:xlink="http://www.w3.org/1999/xlink">
 <defs>
  <style type="text/css">
   <![CDATA[
    .fil0 {fill:#332e2e;fill-rule:nonzero}
   ]]>
  </style>
 </defs>
 <g id="Слой_x0020_1">
  <metadata id="CorelCorpID_0Corel-Layer"/>
  <g id="_1430109008848">
   <path class="fil0" d="M3.19 7.13c-0.14,0 -0.26,-0.03 -0.37,-0.09 -0.11,-0.07 -0.19,-0.18 -0.24,-0.35 -0.01,-0.04 -0.02,-0.09 -0.03,-0.14 -0.01,-0.05 -0.02,-0.1 -0.02,-0.15 0,-0.19 0.03,-0.4 0.08,-0.63 0.05,-0.23 0.1,-0.43 0.16,-0.58 -0.03,0.02 -0.08,0.1 -0.16,0.23 -0.07,0.13 -0.17,0.29 -0.29,0.46 -0.11,0.18 -0.24,0.35 -0.39,0.52 -0.14,0.18 -0.29,0.32 -0.46,0.43 -0.17,0.12 -0.34,0.17 -0.53,0.17 -0.12,0 -0.27,-0.03 -0.45,-0.1 -0.17,-0.07 -0.3,-0.17 -0.37,-0.29 -0.08,-0.13 -0.12,-0.28 -0.12,-0.47 0,-0.22 0.05,-0.47 0.15,-0.74 0.1,-0.26 0.23,-0.51 0.38,-0.74 0.06,-0.08 0.12,-0.17 0.19,-0.28 0.07,-0.11 0.14,-0.21 0.21,-0.29 0.07,-0.08 0.12,-0.12 0.15,-0.13 0.09,-0.03 0.2,-0.05 0.32,-0.05 0.14,0 0.23,0.02 0.3,0.05 0.05,0.02 0.08,0.05 0.08,0.08 0,0.04 -0.03,0.09 -0.1,0.15 -0.08,0.08 -0.2,0.2 -0.34,0.35 -0.15,0.15 -0.3,0.34 -0.44,0.56 -0.14,0.21 -0.26,0.45 -0.35,0.72 -0.08,0.21 -0.12,0.39 -0.12,0.54 0,0.27 0.11,0.41 0.32,0.41 0.19,0 0.39,-0.08 0.6,-0.23 0.21,-0.16 0.41,-0.35 0.61,-0.57 0.19,-0.23 0.37,-0.45 0.53,-0.67 0.16,-0.22 0.28,-0.4 0.37,-0.53 0.07,-0.11 0.16,-0.25 0.26,-0.42 0.09,-0.17 0.19,-0.33 0.28,-0.5 0.09,-0.16 0.17,-0.28 0.22,-0.36 0.06,0 0.14,0.01 0.25,0.03 0.11,0.02 0.21,0.06 0.29,0.1 0.08,0.05 0.11,0.11 0.07,0.18 -0.05,0.07 -0.12,0.19 -0.22,0.36 -0.1,0.16 -0.19,0.32 -0.29,0.49 -0.1,0.17 -0.17,0.3 -0.23,0.4 -0.18,0.36 -0.3,0.74 -0.36,1.15 0,0.03 -0.01,0.06 -0.01,0.09 0,0.02 0,0.05 0,0.08 0,0.31 0.11,0.47 0.32,0.47 0.11,0 0.27,-0.07 0.46,-0.21 0.19,-0.14 0.39,-0.31 0.6,-0.5 0.2,-0.19 0.39,-0.38 0.56,-0.56 0.16,-0.18 0.28,-0.32 0.34,-0.41 0.01,-0.03 0.04,-0.04 0.07,-0.04 0.03,0 0.05,0.01 0.07,0.04 0.02,0.02 0.02,0.05 0,0.09 -0.07,0.13 -0.19,0.29 -0.36,0.49 -0.16,0.2 -0.35,0.4 -0.55,0.59 -0.2,0.2 -0.4,0.37 -0.59,0.51 -0.1,0.08 -0.23,0.14 -0.38,0.2 -0.16,0.06 -0.31,0.09 -0.47,0.09zm6.1 1.67c-0.29,0 -0.56,-0.1 -0.82,-0.31 -0.26,-0.2 -0.5,-0.47 -0.71,-0.81 -0.22,-0.34 -0.4,-0.7 -0.56,-1.1 -0.15,-0.4 -0.26,-0.79 -0.33,-1.17 -0.26,0.37 -0.49,0.71 -0.68,1.02 -0.19,0.31 -0.32,0.49 -0.41,0.54 -0.04,0.02 -0.13,0.06 -0.26,0.11 -0.14,0.06 -0.25,0.08 -0.32,0.08 -0.05,0 -0.07,-0.02 -0.04,-0.08 0.01,-0.03 0.05,-0.13 0.11,-0.29 0.06,-0.17 0.14,-0.38 0.22,-0.62 0.09,-0.25 0.18,-0.51 0.27,-0.78 0.1,-0.27 0.2,-0.53 0.29,-0.77 -0.08,0.09 -0.17,0.19 -0.27,0.32 -0.1,0.13 -0.21,0.29 -0.35,0.48 -0.02,0.04 -0.06,0.06 -0.11,0.06 -0.06,0 -0.08,-0.02 -0.08,-0.07 0,-0.05 0.02,-0.1 0.08,-0.16 0.11,-0.13 0.22,-0.28 0.35,-0.45 0.12,-0.17 0.24,-0.34 0.36,-0.5 0.11,-0.17 0.21,-0.3 0.27,-0.4l0.14 -0.36c0.14,-0.35 0.3,-0.72 0.5,-1.13 0.2,-0.41 0.44,-0.79 0.7,-1.16 0.26,-0.37 0.55,-0.67 0.85,-0.9 0.31,-0.23 0.63,-0.35 0.97,-0.35 0.04,0 0.08,0 0.12,0.01 0.05,0 0.09,0.01 0.13,0.01 0.04,0.01 0.09,0.03 0.13,0.05 0.04,0.02 0.08,0.04 0.12,0.06 0.18,0.1 0.27,0.25 0.27,0.44 0,0.14 -0.04,0.29 -0.12,0.46 -0.07,0.16 -0.17,0.33 -0.28,0.49 -0.11,0.16 -0.22,0.31 -0.33,0.44 -0.11,0.13 -0.2,0.23 -0.26,0.3 -0.38,0.39 -0.79,0.74 -1.22,1.06 -0.44,0.32 -0.82,0.54 -1.15,0.67 -0.12,0.27 -0.24,0.54 -0.34,0.81 -0.11,0.28 -0.2,0.53 -0.28,0.76 -0.07,0.22 -0.13,0.4 -0.17,0.52 0.14,-0.16 0.26,-0.32 0.38,-0.49 0.12,-0.17 0.24,-0.33 0.37,-0.49l0.29 -0.34c0.1,-0.12 0.22,-0.26 0.37,-0.43 0.16,-0.17 0.31,-0.33 0.48,-0.49 0.16,-0.15 0.3,-0.26 0.44,-0.32 0.1,-0.06 0.21,-0.08 0.32,-0.08 0.11,0 0.2,0.02 0.27,0.07 0.07,0.05 0.1,0.11 0.1,0.18 0,0.11 -0.08,0.2 -0.24,0.28 -0.12,0.06 -0.29,0.13 -0.49,0.23 -0.21,0.1 -0.42,0.22 -0.64,0.36 -0.21,0.14 -0.4,0.29 -0.55,0.46 0.11,0.41 0.23,0.76 0.34,1.05 0.11,0.3 0.25,0.58 0.4,0.84 0.16,0.27 0.37,0.57 0.64,0.9 0.18,0.21 0.36,0.37 0.54,0.49 0.19,0.13 0.36,0.19 0.5,0.19 0.13,0 0.22,-0.03 0.28,-0.09 0.05,-0.06 0.07,-0.13 0.07,-0.21 0,-0.1 -0.02,-0.22 -0.07,-0.34 -0.06,-0.12 -0.11,-0.21 -0.16,-0.29 -0.04,-0.05 -0.06,-0.09 -0.06,-0.13 0,-0.02 0.02,-0.03 0.05,-0.03 0.07,0 0.14,0.03 0.22,0.09 0.04,0.05 0.09,0.14 0.15,0.27 0.07,0.14 0.1,0.26 0.1,0.36 0,0.15 -0.05,0.28 -0.16,0.38 -0.11,0.11 -0.23,0.18 -0.37,0.23 -0.14,0.05 -0.26,0.07 -0.36,0.07zm-2.28 -5.2c0.34,-0.15 0.67,-0.35 1.01,-0.6 0.34,-0.26 0.66,-0.56 0.96,-0.91 0.03,-0.05 0.1,-0.13 0.19,-0.26 0.1,-0.13 0.2,-0.27 0.31,-0.44 0.11,-0.16 0.21,-0.32 0.28,-0.48 0.08,-0.17 0.12,-0.3 0.12,-0.41 0,-0.08 -0.02,-0.13 -0.07,-0.16 -0.02,-0.03 -0.06,-0.04 -0.1,-0.04 -0.13,0 -0.27,0.07 -0.43,0.2 -0.52,0.4 -0.95,0.85 -1.3,1.35 -0.34,0.5 -0.67,1.08 -0.97,1.75zm3.29 3.59c-0.35,0 -0.65,-0.08 -0.91,-0.25 -0.25,-0.16 -0.38,-0.41 -0.38,-0.74 0,-0.18 0.05,-0.39 0.16,-0.65 0.08,-0.18 0.22,-0.38 0.43,-0.62 0.21,-0.23 0.46,-0.45 0.73,-0.67 0.28,-0.23 0.56,-0.41 0.85,-0.55 0.29,-0.14 0.55,-0.22 0.78,-0.22 0.08,0 0.16,0.02 0.23,0.04 0.13,0.05 0.22,0.12 0.27,0.22 0.05,0.1 0.08,0.21 0.08,0.31 0,0.1 -0.02,0.2 -0.05,0.29 -0.03,0.1 -0.07,0.18 -0.11,0.25 -0.14,0.21 -0.34,0.39 -0.6,0.56 -0.26,0.16 -0.52,0.29 -0.79,0.38 -0.27,0.09 -0.49,0.15 -0.66,0.16l-0.02 0c-0.1,0 -0.15,-0.03 -0.15,-0.09 0,-0.04 0.03,-0.06 0.09,-0.06 0.19,-0.02 0.42,-0.1 0.7,-0.26 0.29,-0.16 0.54,-0.32 0.75,-0.49 0.1,-0.08 0.21,-0.19 0.33,-0.33 0.13,-0.14 0.2,-0.27 0.2,-0.41 0,-0.14 -0.07,-0.21 -0.2,-0.21 -0.07,0 -0.14,0.02 -0.22,0.05 -0.07,0.03 -0.13,0.06 -0.18,0.07 -0.22,0.11 -0.47,0.28 -0.74,0.51 -0.27,0.22 -0.52,0.48 -0.74,0.76 -0.22,0.28 -0.37,0.57 -0.45,0.86 -0.03,0.06 -0.04,0.12 -0.05,0.18 -0.01,0.05 -0.01,0.11 -0.01,0.16 0,0.19 0.06,0.32 0.18,0.4 0.12,0.08 0.26,0.11 0.43,0.11 0.26,0 0.52,-0.05 0.79,-0.16 0.27,-0.12 0.54,-0.26 0.79,-0.44 0.26,-0.18 0.49,-0.37 0.7,-0.57 0.22,-0.21 0.4,-0.41 0.54,-0.6 0.03,-0.03 0.05,-0.05 0.09,-0.05 0.03,-0.01 0.05,0 0.05,0.01 0.03,0.01 0.05,0.03 0.05,0.07 0,0.03 -0.01,0.07 -0.02,0.1 -0.22,0.3 -0.48,0.59 -0.79,0.88 -0.3,0.29 -0.64,0.52 -1.01,0.71 -0.37,0.19 -0.75,0.29 -1.14,0.29zm3.19 0c-0.14,0 -0.21,-0.04 -0.21,-0.12 0,-0.06 0.05,-0.13 0.14,-0.2 0.09,-0.07 0.17,-0.1 0.25,-0.1 0.08,0 0.23,0 0.44,-0.01 0.21,0 0.43,-0.01 0.67,-0.01 0.24,0 0.44,-0.01 0.59,-0.01 0.2,0 0.35,0.02 0.47,0.06 0.12,0.03 0.18,0.07 0.18,0.11 0,0.04 -0.04,0.08 -0.14,0.1 -0.09,0.02 -0.19,0.04 -0.29,0.05 -0.1,0.02 -0.17,0.03 -0.2,0.03 -0.19,0.02 -0.41,0.02 -0.66,0.04 -0.25,0.01 -0.49,0.03 -0.72,0.04 -0.23,0.01 -0.4,0.02 -0.52,0.02zm3.33 -0.03c-0.05,0 -0.07,-0.02 -0.04,-0.08 0.02,-0.04 0.06,-0.15 0.13,-0.32 0.06,-0.16 0.13,-0.36 0.21,-0.59 0.08,-0.24 0.16,-0.48 0.25,-0.72 0.09,-0.25 0.16,-0.48 0.24,-0.7 0.07,-0.22 0.13,-0.39 0.18,-0.51 0.01,-0.05 0.03,-0.12 0.04,-0.21 0.02,-0.08 0.05,-0.17 0.1,-0.24 0.05,-0.07 0.14,-0.11 0.26,-0.11 0.24,0 0.35,0.05 0.35,0.16 0,0.04 -0.02,0.11 -0.06,0.2 -0.09,0.21 -0.19,0.45 -0.3,0.72 -0.11,0.27 -0.2,0.53 -0.29,0.77 -0.08,0.24 -0.15,0.42 -0.2,0.55 0.08,-0.1 0.21,-0.26 0.38,-0.46 0.18,-0.2 0.37,-0.42 0.59,-0.65 0.22,-0.23 0.44,-0.46 0.68,-0.67 0.23,-0.22 0.45,-0.4 0.66,-0.53 0.2,-0.14 0.38,-0.21 0.53,-0.21 0.18,0 0.28,0.11 0.28,0.31 0,0.07 -0.02,0.17 -0.06,0.31 -0.07,0.19 -0.16,0.38 -0.27,0.56 -0.11,0.18 -0.2,0.38 -0.29,0.58 -0.15,0.36 -0.23,0.66 -0.25,0.88 -0.01,0.03 -0.02,0.06 -0.02,0.09 0,0.02 0,0.05 0,0.08 0,0.31 0.11,0.47 0.32,0.47 0.11,0 0.27,-0.07 0.46,-0.21 0.2,-0.14 0.4,-0.31 0.6,-0.5 0.21,-0.19 0.39,-0.38 0.55,-0.56 0.16,-0.18 0.28,-0.32 0.34,-0.41 0.02,-0.03 0.04,-0.04 0.07,-0.04 0.03,0 0.05,0.01 0.07,0.04 0.02,0.02 0.02,0.05 0.01,0.09 -0.07,0.13 -0.19,0.29 -0.35,0.49 -0.17,0.2 -0.36,0.4 -0.56,0.59 -0.2,0.2 -0.39,0.37 -0.59,0.51 -0.11,0.08 -0.26,0.15 -0.43,0.21 -0.17,0.06 -0.34,0.09 -0.51,0.08 -0.22,-0.02 -0.37,-0.1 -0.46,-0.23 -0.1,-0.13 -0.14,-0.28 -0.14,-0.46 0,-0.2 0.04,-0.43 0.12,-0.66 0.08,-0.24 0.17,-0.46 0.27,-0.67 0.1,-0.21 0.18,-0.37 0.25,-0.48 0.06,-0.12 0.09,-0.22 0.09,-0.29 0,-0.06 -0.03,-0.09 -0.08,-0.09 -0.06,0 -0.14,0.03 -0.25,0.1 -0.1,0.07 -0.25,0.19 -0.44,0.36 -0.17,0.15 -0.35,0.34 -0.54,0.58 -0.2,0.23 -0.38,0.48 -0.57,0.72 -0.18,0.25 -0.34,0.47 -0.47,0.64 -0.14,0.18 -0.23,0.29 -0.29,0.32 -0.04,0.02 -0.12,0.06 -0.26,0.11 -0.13,0.06 -0.24,0.08 -0.31,0.08zm6.19 -0.15c-0.07,0 -0.16,0 -0.25,-0.02 -0.09,-0.02 -0.13,-0.07 -0.13,-0.16 0,-0.04 0.04,-0.1 0.13,-0.18 0.08,-0.08 0.18,-0.16 0.28,-0.23 0.1,-0.08 0.17,-0.12 0.22,-0.12 0.05,0 0.08,0.03 0.07,0.09 0,0.05 0,0.11 0,0.17 0,0.03 -0.02,0.08 -0.06,0.16 -0.04,0.07 -0.08,0.14 -0.13,0.2 -0.05,0.06 -0.09,0.09 -0.13,0.09zm4.21 1.27c-0.21,-0.03 -0.35,-0.13 -0.43,-0.29 -0.09,-0.16 -0.13,-0.37 -0.13,-0.61 0,-0.28 0.04,-0.59 0.12,-0.92 0.08,-0.34 0.18,-0.65 0.28,-0.94 0.11,-0.3 0.2,-0.52 0.26,-0.68 -0.18,0.21 -0.38,0.44 -0.61,0.69 -0.23,0.24 -0.47,0.48 -0.71,0.71 -0.25,0.22 -0.49,0.4 -0.72,0.55 -0.23,0.14 -0.43,0.21 -0.6,0.21 -0.12,0 -0.25,-0.04 -0.39,-0.11 -0.14,-0.07 -0.25,-0.17 -0.34,-0.28 -0.11,-0.16 -0.17,-0.32 -0.17,-0.48 0,-0.21 0.07,-0.43 0.21,-0.65 0.15,-0.22 0.33,-0.44 0.56,-0.66 0.23,-0.21 0.47,-0.4 0.73,-0.58 0.26,-0.17 0.51,-0.32 0.75,-0.44 0.23,-0.12 0.42,-0.2 0.57,-0.24 0.08,-0.01 0.16,-0.03 0.24,-0.04 0.09,-0.02 0.18,-0.03 0.27,-0.03 0.12,0 0.23,0.02 0.35,0.05 0.12,0.02 0.21,0.07 0.29,0.13l0.05 0.03c0.18,-0.42 0.39,-0.85 0.61,-1.29 0.23,-0.44 0.47,-0.84 0.72,-1.2 0.26,-0.37 0.53,-0.66 0.81,-0.88 0.29,-0.22 0.59,-0.33 0.9,-0.33 0.04,0 0.08,0 0.11,0.01 0.04,0 0.08,0.01 0.11,0.01 0.19,0.04 0.33,0.11 0.41,0.21 0.08,0.09 0.12,0.21 0.12,0.34 0,0.09 -0.01,0.19 -0.05,0.3 -0.03,0.1 -0.08,0.2 -0.14,0.3 -0.17,0.3 -0.4,0.6 -0.67,0.9 -0.28,0.29 -0.58,0.58 -0.9,0.85 -0.33,0.27 -0.65,0.54 -0.97,0.8 -0.32,0.25 -0.61,0.49 -0.88,0.72 -0.11,0.27 -0.23,0.58 -0.35,0.95 -0.11,0.36 -0.21,0.67 -0.29,0.93 -0.04,0.18 -0.08,0.36 -0.11,0.52 -0.02,0.16 -0.04,0.31 -0.04,0.45 0,0.26 0.05,0.47 0.14,0.63 0.08,0.12 0.18,0.18 0.29,0.18 0.09,0 0.16,-0.03 0.23,-0.09 0.04,-0.01 0.06,-0.03 0.09,-0.06 0.03,-0.02 0.06,-0.04 0.1,-0.07 0.05,-0.02 0.09,-0.03 0.12,-0.03 0.05,0 0.05,0.04 0.01,0.13 -0.03,0.02 -0.05,0.05 -0.08,0.08 -0.03,0.04 -0.07,0.08 -0.11,0.11 -0.05,0.04 -0.13,0.07 -0.24,0.1 -0.11,0.02 -0.22,0.03 -0.33,0.03 -0.03,0 -0.06,0 -0.1,0 -0.03,-0.01 -0.06,-0.01 -0.09,-0.02zm1.11 -4.51c0.31,-0.21 0.65,-0.47 1.01,-0.78 0.36,-0.31 0.71,-0.65 1.02,-1.01 0.32,-0.36 0.56,-0.7 0.73,-1.03 0.1,-0.18 0.15,-0.33 0.15,-0.44 0,-0.13 -0.05,-0.2 -0.17,-0.2 -0.11,0 -0.25,0.07 -0.43,0.19 -0.52,0.4 -0.95,0.88 -1.31,1.43 -0.36,0.56 -0.69,1.17 -1,1.84zm-3.97 2.95c0.04,0.05 0.09,0.07 0.15,0.07 0.12,0 0.25,-0.05 0.41,-0.15 0.16,-0.1 0.27,-0.18 0.32,-0.23 0.4,-0.32 0.79,-0.66 1.19,-1.03 0.4,-0.37 0.77,-0.74 1.12,-1.11 0.03,-0.07 0.06,-0.13 0.08,-0.2 0.03,-0.07 0.05,-0.13 0.09,-0.19 -0.12,-0.05 -0.26,-0.07 -0.41,-0.07 -0.31,0 -0.65,0.1 -1.02,0.3 -0.37,0.2 -0.71,0.44 -1,0.71 -0.09,0.08 -0.22,0.21 -0.38,0.4 -0.16,0.19 -0.3,0.4 -0.43,0.62 -0.14,0.22 -0.2,0.43 -0.2,0.62 0,0.1 0.03,0.19 0.08,0.26zm4.99 0.42c-0.21,0 -0.4,-0.05 -0.57,-0.15 -0.27,-0.16 -0.4,-0.46 -0.4,-0.88 0,-0.18 0.03,-0.39 0.09,-0.62 0.05,-0.19 0.15,-0.4 0.29,-0.63 0.14,-0.23 0.3,-0.45 0.49,-0.66 0.19,-0.21 0.4,-0.38 0.62,-0.51 0.23,-0.13 0.45,-0.2 0.68,-0.2 0.09,0 0.17,0.02 0.24,0.04 0.09,0.03 0.17,0.09 0.24,0.17 0.07,0.08 0.1,0.18 0.1,0.31 0,0.13 -0.03,0.2 -0.1,0.22 -0.07,0.01 -0.1,0 -0.1,-0.05 0,-0.02 0,-0.03 0.01,-0.05 0,-0.01 0,-0.02 0,-0.03 0,-0.06 -0.01,-0.12 -0.05,-0.17 -0.03,-0.05 -0.1,-0.08 -0.19,-0.08 -0.12,0 -0.28,0.07 -0.46,0.2 -0.18,0.13 -0.37,0.31 -0.56,0.53 -0.19,0.22 -0.35,0.46 -0.5,0.73 -0.14,0.26 -0.23,0.52 -0.28,0.79 -0.01,0.03 -0.01,0.07 -0.02,0.11 0,0.03 0,0.07 0,0.11 0,0.17 0.04,0.32 0.12,0.44 0.08,0.12 0.21,0.18 0.39,0.18 0.21,0 0.42,-0.08 0.62,-0.25 0.21,-0.16 0.39,-0.36 0.54,-0.59 0.16,-0.24 0.28,-0.44 0.36,-0.62 0.06,-0.14 0.1,-0.26 0.13,-0.36 0.02,-0.1 0.03,-0.19 0.03,-0.26 0,-0.06 -0.01,-0.11 -0.02,-0.16 -0.01,-0.04 -0.02,-0.08 -0.04,-0.11 -0.01,-0.05 -0.02,-0.08 -0.02,-0.11 0,-0.06 0.02,-0.11 0.07,-0.15 0.06,-0.04 0.11,-0.06 0.16,-0.06 0.05,0 0.1,0.02 0.15,0.05 0.06,0.01 0.15,0.03 0.26,0.03 0.11,0.01 0.22,0.02 0.35,0.02 0.13,0 0.26,-0.01 0.4,-0.02 0.13,0 0.25,-0.02 0.35,-0.04 0.02,-0.01 0.04,-0.01 0.07,-0.01 0.05,0 0.08,0.01 0.08,0.04 0,0.03 -0.03,0.06 -0.08,0.08 -0.27,0.13 -0.51,0.19 -0.72,0.2 -0.22,0.01 -0.4,0.01 -0.56,0.01 0.02,0.2 -0.02,0.4 -0.12,0.62 -0.1,0.22 -0.21,0.42 -0.32,0.59 -0.13,0.19 -0.28,0.39 -0.45,0.59 -0.17,0.2 -0.36,0.37 -0.57,0.51 -0.21,0.13 -0.44,0.2 -0.71,0.2zm4.96 -4.17c-0.1,0 -0.21,-0.01 -0.31,-0.03 -0.11,-0.02 -0.17,-0.09 -0.17,-0.21 0,-0.02 0.06,-0.08 0.16,-0.16 0.11,-0.09 0.21,-0.18 0.33,-0.27 0.11,-0.08 0.18,-0.14 0.2,-0.15 0.13,-0.11 0.21,-0.16 0.24,-0.16 0.04,0 0.04,0.05 0,0.15 -0.04,0.1 -0.06,0.19 -0.06,0.26 0,0.04 -0.02,0.11 -0.06,0.2 -0.05,0.09 -0.11,0.18 -0.17,0.26 -0.06,0.07 -0.11,0.11 -0.16,0.11zm-1.27 4.16c-0.13,0 -0.26,-0.03 -0.37,-0.09 -0.12,-0.07 -0.2,-0.18 -0.25,-0.35 -0.01,-0.03 -0.02,-0.05 -0.02,-0.07 0,-0.03 -0.01,-0.05 -0.01,-0.08 0,-0.16 0.04,-0.35 0.11,-0.58 0.07,-0.24 0.15,-0.46 0.25,-0.68 -0.04,0.06 -0.1,0.14 -0.16,0.23 -0.06,0.09 -0.15,0.2 -0.27,0.34 -0.03,0.03 -0.06,0.05 -0.1,0.05 -0.05,0 -0.08,-0.03 -0.08,-0.09 0,-0.05 0.01,-0.09 0.05,-0.12 0.2,-0.26 0.38,-0.48 0.54,-0.69 0.15,-0.2 0.27,-0.37 0.35,-0.51 0,0 0,-0.01 -0.01,-0.01 0,-0.01 0,-0.01 0,-0.02 0,-0.02 0.01,-0.06 0.03,-0.11 0.06,-0.18 0.13,-0.34 0.19,-0.47 0.07,-0.12 0.14,-0.2 0.22,-0.21 0.01,0 0.03,0 0.05,-0.01 0.01,0 0.03,0 0.04,0 0.09,0 0.16,0.02 0.23,0.06 0.07,0.03 0.11,0.09 0.11,0.17 0,0.07 -0.03,0.15 -0.08,0.26 -0.05,0.1 -0.11,0.22 -0.19,0.37 -0.17,0.35 -0.32,0.68 -0.46,0.97 -0.13,0.29 -0.21,0.52 -0.22,0.71 -0.01,0.03 -0.02,0.06 -0.02,0.09 0,0.02 0,0.05 0,0.08 0,0.31 0.11,0.47 0.31,0.47 0.12,0 0.28,-0.07 0.47,-0.2 0.2,-0.14 0.39,-0.31 0.59,-0.5 0.21,-0.2 0.39,-0.39 0.56,-0.57 0.16,-0.18 0.28,-0.32 0.34,-0.41 0.02,-0.03 0.05,-0.04 0.07,-0.04 0.03,0 0.05,0.01 0.07,0.04 0.02,0.02 0.03,0.05 0.01,0.09 -0.07,0.13 -0.19,0.29 -0.35,0.49 -0.17,0.2 -0.36,0.4 -0.56,0.59 -0.21,0.2 -0.41,0.37 -0.6,0.51 -0.1,0.08 -0.23,0.14 -0.38,0.2 -0.15,0.06 -0.3,0.09 -0.46,0.09z"/>
   <path class="fil0" d="M35.67 7.13c-0.14,0 -0.27,-0.03 -0.38,-0.09 -0.11,-0.07 -0.19,-0.18 -0.25,-0.35 -0.01,-0.03 -0.01,-0.05 -0.02,-0.07 0,-0.03 0,-0.05 0,-0.08 0,-0.16 0.03,-0.35 0.1,-0.58 0.07,-0.24 0.16,-0.46 0.26,-0.68 -0.05,0.06 -0.1,0.14 -0.16,0.23 -0.07,0.09 -0.16,0.2 -0.27,0.34 -0.03,0.03 -0.07,0.05 -0.11,0.05 -0.05,0 -0.08,-0.03 -0.08,-0.09 0,-0.05 0.02,-0.09 0.05,-0.12 0.2,-0.26 0.38,-0.48 0.54,-0.69 0.16,-0.2 0.28,-0.37 0.35,-0.51 0,-0.01 0.03,-0.06 0.07,-0.14 0.05,-0.08 0.11,-0.2 0.19,-0.34 -0.06,0 -0.12,0.01 -0.16,0.01 -0.04,0.01 -0.08,0.01 -0.11,0.01 -0.05,0 -0.1,-0.02 -0.14,-0.07 -0.04,-0.05 -0.04,-0.11 -0.01,-0.17 0.04,-0.11 0.12,-0.18 0.26,-0.19 0.13,-0.02 0.24,-0.03 0.34,-0.04 0.01,-0.01 0.03,-0.02 0.05,-0.02 0.09,-0.17 0.18,-0.34 0.27,-0.5 0.08,-0.16 0.15,-0.3 0.21,-0.4 0.06,-0.11 0.09,-0.17 0.09,-0.18 0.15,-0.25 0.26,-0.41 0.3,-0.49 0.05,-0.08 0.11,-0.13 0.19,-0.15 0.08,0 0.17,0 0.27,0.01 0.1,0.02 0.16,0.05 0.19,0.11 0.03,0.03 0.04,0.07 0.04,0.12 0,0.06 -0.02,0.13 -0.05,0.2 -0.03,0.06 -0.06,0.12 -0.09,0.16 -0.03,0.05 -0.07,0.09 -0.12,0.11 -0.05,0.01 -0.1,0.06 -0.14,0.14 -0.08,0.15 -0.16,0.31 -0.25,0.48 -0.1,0.17 -0.19,0.33 -0.29,0.48l0.14 -0.01c0.18,-0.01 0.36,-0.03 0.52,-0.06 0.17,-0.02 0.36,-0.03 0.58,-0.02 0.04,0 0.08,0.01 0.12,0.02 0.04,0.01 0.06,0.03 0.06,0.05 0,0.03 -0.1,0.07 -0.3,0.13 -0.07,0.03 -0.24,0.06 -0.5,0.1 -0.26,0.03 -0.53,0.07 -0.8,0.1 -0.08,0.14 -0.14,0.27 -0.21,0.36 -0.06,0.1 -0.1,0.17 -0.12,0.22 -0.17,0.35 -0.33,0.68 -0.46,0.97 -0.14,0.29 -0.21,0.52 -0.23,0.71 -0.01,0.03 -0.01,0.06 -0.01,0.09 0,0.02 0,0.05 0,0.08 0,0.31 0.1,0.47 0.3,0.47 0.12,0 0.28,-0.07 0.48,-0.2 0.19,-0.14 0.39,-0.31 0.59,-0.5 0.2,-0.2 0.38,-0.39 0.55,-0.57 0.17,-0.18 0.28,-0.32 0.34,-0.41 0.03,-0.03 0.05,-0.04 0.07,-0.04 0.03,0 0.06,0.01 0.08,0.04 0.02,0.02 0.02,0.05 0,0.09 -0.07,0.13 -0.18,0.29 -0.35,0.49 -0.17,0.2 -0.35,0.4 -0.56,0.59 -0.2,0.2 -0.4,0.37 -0.6,0.51 -0.1,0.08 -0.22,0.14 -0.37,0.2 -0.15,0.06 -0.31,0.09 -0.46,0.09z"/>
  </g>
 </g>
</svg>
